<svg width="2045" height="2477" viewBox="0 0 2045 2477" fill="none" xmlns="http://www.w3.org/2000/svg">
<path d="M2031.13 1881.88L1182.04 78.7163C1171.49 56.5295 1155.13 37.6077 1134.71 23.9532C1114.28 10.2987 1090.55 2.41947 1066.01 1.14923C1041.43 -0.49809 1016.87 4.62607 994.996 15.9645C973.123 27.3028 954.778 44.4214 941.955 65.4583L21.03 1557.05C7.02689 1579.57 -0.265617 1605.62 0.00739399 1632.14C0.280405 1658.66 8.10762 1684.55 22.5715 1706.78L472.815 2404.03C489.849 2430.2 514.888 2450.17 544.197 2460.95C573.507 2471.73 605.516 2472.74 635.449 2463.84L1942.07 2077.35C1961.74 2071.59 1979.95 2061.69 1995.47 2048.29C2010.98 2034.89 2023.44 2018.32 2032 1999.7C2040.44 1981.17 2044.74 1961.03 2044.6 1940.67C2044.46 1920.31 2039.88 1900.23 2031.19 1881.82L2031.13 1881.88ZM1841.03 1959.21L732.288 2287.07C698.464 2297.13 665.998 2267.81 673.034 2233.68L1069.16 336.959C1076.56 301.474 1125.57 295.851 1141.06 328.693L1874.36 1885.89C1877.6 1892.83 1879.3 1900.39 1879.34 1908.04C1879.37 1915.7 1877.75 1923.28 1874.58 1930.25C1871.4 1937.22 1866.75 1943.42 1860.95 1948.42C1855.15 1953.42 1848.34 1957.1 1840.97 1959.21L1841.03 1959.21Z" fill="black"/>
<rect x="1326" y="1299" width="685" height="116" fill="black"/>
<rect x="1326" y="1492" width="685" height="116" fill="black"/>
<rect x="1326" y="1685" width="685" height="116" fill="black"/>
</svg>
